<?xml version="1.0" encoding="utf-8"?>
<!-- Svg Vector Icons : http://www.onlinewebfonts.com/icon -->
<!DOCTYPE svg PUBLIC "-//W3C//DTD SVG 1.1//EN" "http://www.w3.org/Graphics/SVG/1.1/DTD/svg11.dtd">
<svg version="1.1" xmlns="http://www.w3.org/2000/svg" xmlns:xlink="http://www.w3.org/1999/xlink" x="0px" y="0px" viewBox="0 0 256 256" enable-background="new 0 0 256 256" xml:space="preserve">
<metadata> Svg Vector Icons : http://www.onlinewebfonts.com/icon </metadata>
<g><g><g><path fill="#000000" d="M115.6,10.6C101,12.3,88.9,15.9,76,22.2c-5.7,2.8-7.1,3.6-7.7,4.8c-1.4,2.7,0.1,5.9,3.1,6.7c1,0.2,2.6-0.4,7.8-2.9c11.2-5.5,21.5-8.7,33.6-10.6c7.3-1.1,23.6-1.1,30.7,0c10.4,1.6,19.7,4.3,28.9,8.4c5.5,2.4,6.8,2.5,8.7,0.7c1.4-1.5,1.8-3.9,0.8-5.7c-0.7-1.3-9.1-5.2-17-7.7c-12.2-4-21-5.5-34.6-5.8C124.2,10.1,119,10.2,115.6,10.6z"/><path fill="#000000" d="M192.2,33.2c-1.6,1.3-2,3-1.4,4.8c0.2,0.7,2.1,2.6,4.3,4.4c18.8,14.9,32.3,35.6,38.2,59c1.9,7.6,2.9,14.2,3.3,22.1c0.3,6.8,0.7,7.8,3.2,8.9c1.3,0.6,1.8,0.6,3.1,0c2.9-1.2,3.2-2.3,2.9-9.4c-1.2-25.2-10.4-49.6-26-69c-5.5-6.9-18.6-19.3-22.5-21.3C195.7,31.8,193.7,32,192.2,33.2z"/><path fill="#000000" d="M111.2,33.5c-29,5.2-54.5,23.7-68,49.6c-2.1,4-2.2,5.5-0.4,7.5c2.4,2.6,6.1,1.6,8-2.3c12.4-24.3,36.9-41.9,64.3-46c4.9-0.8,6.7-2,6.7-5c0-1.6-0.3-2.2-1.5-3.3C118.5,32.3,117.8,32.3,111.2,33.5z"/><path fill="#000000" d="M138.3,33.2c-3,1.3-3.5,6.1-0.9,7.8c0.6,0.3,3.5,1.1,6.5,1.6C175,48.2,202,72.4,213,104.8c3.3,9.8,5.3,20.6,5.3,29c0,3.6,0.1,4.4,1.1,5.7c1.8,2.7,4.9,3,7.1,0.6c1-1.1,1.1-1.6,1.1-5.6c0-18-6.4-39-16.8-55.5c-7.9-12.5-20.5-25.1-32.6-32.6C166.5,39,156,35.2,140.9,32.8C140.3,32.7,139.1,32.9,138.3,33.2z"/><path fill="#000000" d="M53.4,36.9C50.9,38,38.3,51,33.7,57.2c-13.5,18.1-21.1,38.2-23.2,60.8c-1,10.8-0.6,13,2.6,14.3c1.3,0.6,1.8,0.6,3.1,0c2.5-1.1,2.9-2.1,3.2-9c0.7-15.9,4.5-30.2,11.5-44.3c5.5-10.9,11.7-19.3,21.6-29.1c6.6-6.6,7.3-7.4,7.3-8.9c0-1.1-0.4-2-1.2-2.9C57,36.4,55.4,36,53.4,36.9z"/><path fill="#000000" d="M121.9,54.3c-11.1,0.9-22.7,4.7-32.5,10.6c-4.6,2.8-8.1,5.6-13,10.2c-11.6,11.2-18.6,24.5-21.5,41.1c-0.6,2.9-1.5,19.4-1.8,30.8c0,1.4,0.2,2,1.5,3.1c1.3,1.2,1.8,1.4,3.5,1.2c2.5-0.4,3.8-1.8,4.1-5c0.2-1.3,0.5-7.7,0.7-14c0.5-12.8,1.1-17.6,3.5-24.5c7.7-23,26.8-39.5,50.9-43.7c5.4-1,15.7-0.9,21.4,0c8.1,1.3,17.2,4.9,24.1,9.3c3.1,2,5.2,2.1,7.1,0.2c1-1,1.3-1.8,1.3-3c0-2.4-0.6-3.1-3.8-5.2c-10-6.3-21.7-10.1-33.9-11.2c-3-0.2-5.7-0.4-6.1-0.4C127.2,53.8,124.7,54.1,121.9,54.3z"/><path fill="#000000" d="M120.2,76.6c-7,1.2-15.6,4.3-17.6,6.5c-1.4,1.5-1.5,3.4-0.3,5.2c1.8,2.6,3.3,2.7,7.9,0.7c11-4.7,21.4-5.1,32.3-1.2c13.4,4.9,24.8,17.6,29.1,32.5c1.8,6.4,2.5,12.6,2.5,23.9c0,11.1,0.2,12.2,2.7,13.2c1.8,0.7,3.8,0.2,5.2-1.2l1.1-1.2l0-12.7c0-10.1-0.2-13.6-0.8-17.1c-4.6-24.8-21.7-43.5-44.2-48.3C133.2,76,124.9,75.8,120.2,76.6z"/><path fill="#000000" d="M180.1,82.7c-1.8,1.8-1.8,3.9,0,6.4c7.4,10.6,9.3,13.9,11.8,20.3c4.1,10.1,5.3,20.6,4.5,38c-1.3,28.1-5.6,52.3-13.1,73.8c-1.8,5.1-1.7,6.4,0.5,8.2c2.4,1.9,5.4,0.9,7-2.2c2.4-4.7,7.2-21.6,9.7-34c3.6-18.3,6.2-46.7,5.3-61.1c-0.9-15.8-5-28.6-13.1-41c-5.6-8.5-6.7-9.6-9.6-9.7C181.9,81.4,181,81.8,180.1,82.7z"/><path fill="#000000" d="M87.9,95.5c-1.6,0.8-5.6,7.1-7.4,11.4c-3.6,8.7-4.6,15.6-5,36.3c-0.5,18.8-1.1,24.8-3.9,35.8c-3.3,13-9.4,25.5-16.5,33.7c-2,2.4-2.3,3.2-2.2,5.4c0.1,1.6,2.6,3.5,4.5,3.5c1.5,0,2.1-0.4,4.3-2.7c8.2-8.4,16.6-26.3,20-42.3c2.2-10.2,2.6-15.7,3-33.1c0.5-24.1,1.8-30.4,8.2-39.9c1.8-2.7,2.1-3.4,1.8-4.7c-0.4-1.9-2.6-4-4.3-4C89.6,94.8,88.5,95.1,87.9,95.5z"/><path fill="#000000" d="M120.8,98.9c-8.4,2.2-15.3,7.9-19.1,15.7c-1.2,2.4-2.5,5.8-2.9,7.6c-0.9,3.7-1.5,15.5-1.2,22.4c0.3,5.2,0.9,6.3,4,6.7c1.6,0.2,2.1,0,3.4-1.2l1.6-1.4l0.1-7.3c0.2-14.7,0.6-18,3.5-23.3c2-3.8,5.5-7.1,9.6-9.1c3.2-1.6,3.7-1.7,7.8-1.7c3.8,0,4.7,0.2,7,1.2c1.5,0.7,3.5,1.9,4.6,2.8c4,3.2,8.1,10.1,9.4,15.7c3.8,17.1,1.1,53.1-6,78c-2.7,9.3-5.7,18.1-9,26.3c-3.7,8.9-3.9,9.9-3.1,11.8c1.2,2.8,4.7,3.5,6.9,1.4c2.4-2.2,9.3-20,14-36.7c5.1-17.5,8.1-39.8,8.1-58.8c0-16.2-1.4-25.3-4.9-32.4C147.2,102.2,134.3,95.4,120.8,98.9z"/><path fill="#000000" d="M36.9,102.2c-1.5,0.7-2.3,2.8-3.4,8.7c-0.8,4.3-1.1,8-1.3,19.8c-0.2,8-0.6,15.9-0.9,17.5c-1.3,7.6-4.8,17.5-8.6,24.3c-2.1,3.7-2.1,5.7-0.3,7.5c1.5,1.4,3.3,1.8,5.3,0.8c2.4-1.1,9-15.3,11.3-24.6c1.6-6.1,2-10.8,2.4-24.9c0.3-10.6,0.6-15.8,1.2-18.4c0.4-2,0.9-4.7,1-6.1c0.2-2.2,0.1-2.5-1.2-3.8C40.9,101.6,38.9,101.3,36.9,102.2z"/><path fill="#000000" d="M126.4,122.4c-0.6,0.2-1.4,1-1.9,1.6c-0.9,1.2-0.9,1.7-0.7,12.1c0.8,38.4-6.7,74.1-20.8,98.4c-3,5.3-3.2,6.7-1.2,8.7c1.5,1.4,3.8,1.8,5.6,0.8c1.2-0.6,3.5-4.3,7.1-11.4c9.2-18.4,14.8-39.6,17.5-66.4c0.9-8.7,1.4-29.3,0.9-36.1c-0.3-4.5-0.5-5.2-1.6-6.4C130,122.3,127.9,121.7,126.4,122.4z"/><path fill="#000000" d="M219.2,155c-0.7,0.7-1.3,1.9-1.4,3.1c-0.1,1.1-0.6,4.5-1,7.7c-0.8,6.5-2.8,18.1-4.9,27.7c-0.7,3.5-1.3,6.9-1.3,7.5c0,3.2,2.9,5.4,5.8,4.4c0.9-0.3,1.9-1.1,2.4-1.7c1.2-1.8,5.6-24.3,7.3-37c1.1-8,1-10.1-0.6-11.7C223.7,153.3,220.9,153.3,219.2,155z"/><path fill="#000000" d="M52.5,162.3c-1.1,1-1.5,1.8-2.2,4.7c-1.9,8.7-6.3,19.7-11.8,29.2c-2.2,3.8-2.4,4.3-2,5.8c0.8,3.3,5,4.6,7.3,2.4c3.9-3.7,11.7-20.9,14.6-32.2c1.5-6,1.6-7.7,0.5-9.1C57.1,160.9,54.6,160.6,52.5,162.3z"/><path fill="#000000" d="M99.5,163c-1.8,1.2-2.2,2-2.6,6.9c-1.1,13.4-5,29.3-9.7,39.5c-2.1,4.5-5.8,11-9.5,16.6c-1.8,2.6-2.3,3.9-2.3,5.3c0,3.3,3.3,5.3,6.2,3.9c2.9-1.4,12.5-17.5,16.4-27.7c4-10.3,8.3-31,8.3-40C106.4,163.5,102.7,161,99.5,163z"/><path fill="#000000" d="M175.6,167.5c-1.3,0.3-3.4,2.7-3.4,4.1c0,0.6-0.6,4.8-1.4,9.3c-1.6,9.5-6,27.7-10.4,42.8c-4.2,14.5-4.1,14.1-3.4,15.7c0.4,0.7,1.4,1.7,2.3,2.2c1.5,0.7,1.8,0.8,3.3,0.1c0.9-0.4,1.9-1.2,2.3-1.8c1.7-2.5,12-41.1,14.1-52.7c1.2-6.4,2.3-14.2,2.3-15.7C181.5,169.2,178.3,167,175.6,167.5z"/></g></g></g>
</svg>